PathFileType	4	(X/Y/Z)	/Users/itak/Documents/Research/Walk-IL/dataset/trc/00405_00012.trc
DataRate	CameraRate	NumFrames	NumMarkers	Units	OrigDataRate	OrigDataStartFrame	OrigNumFrames
100.000000	100.000000	4	54	mm	100.000000	513	587
Frame#	Time	RPSI			LPSI			L3			STRN			T10			C7			CLAV			RBAK			LBAK			LSHO			LUPA			LAEL			LAOL			LWTS			LWPS			LFRA			LHPS			LHTS			RSHO			RUPA			RAEL			RAOL			RWTS			RWPS			RFRA			RIFD			RHPS			RBHD			LFHD			RFHD			LBHD			LHIP			RHIP			RASI			LASI			LKNE			LTHI			LANK			LTIP			LTOE			LMT1			LMT5			LHEE			RKNE			RTHI			RANK			RTIP			RTOE			RMT1			RMT5			RHEE			LIFD			RHTS			*53			
		X1	Y1	Z1	X2	Y2	Z2	X3	Y3	Z3	X4	Y4	Z4	X5	Y5	Z5	X6	Y6	Z6	X7	Y7	Z7	X8	Y8	Z8	X9	Y9	Z9	X10	Y10	Z10	X11	Y11	Z11	X12	Y12	Z12	X13	Y13	Z13	X14	Y14	Z14	X15	Y15	Z15	X16	Y16	Z16	X17	Y17	Z17	X18	Y18	Z18	X19	Y19	Z19	X20	Y20	Z20	X21	Y21	Z21	X22	Y22	Z22	X23	Y23	Z23	X24	Y24	Z24	X25	Y25	Z25	X26	Y26	Z26	X27	Y27	Z27	X28	Y28	Z28	X29	Y29	Z29	X30	Y30	Z30	X31	Y31	Z31	X32	Y32	Z32	X33	Y33	Z33	X34	Y34	Z34	X35	Y35	Z35	X36	Y36	Z36	X37	Y37	Z37	X38	Y38	Z38	X39	Y39	Z39	X40	Y40	Z40	X41	Y41	Z41	X42	Y42	Z42	X43	Y43	Z43	X44	Y44	Z44	X45	Y45	Z45	X46	Y46	Z46	X47	Y47	Z47	X48	Y48	Z48	X49	Y49	Z49	X50	Y50	Z50	X51	Y51	Z51	X52	Y52	Z52	X53	Y53	Z53	X54	Y54	Z54	

514	5.13	1199.174682617188	943.868408203125	-215.4426727294922	1331.895141601562	938.7250366210938	-226.1998291015625	1256.56884765625	1015.262329101562	-223.8728637695312	1265.555786132812	1190.158447265625	-5.596113204956055	1252.743774414062	1117.357666015625	-246.4102478027344	1254.294677734375	1368.683349609375	-228.2348327636719	1260.046264648438	1303.378173828125	-69.4114990234375	1187.945922851562	1221.062133789062	-260.6950988769531	1354.885131835938	1332.551513671875	-251.1023559570312	1412.83740234375	1355.856811523438	-172.4385528564453	1476.74658203125	1240.176513671875	-210.2369995117188	1510.344116210938	1046.210083007812	-211.0937042236328	1433.153076171875	1020.332214355469	-240.5992889404297	1516.52685546875	832.26416015625	-111.0165252685547	1556.026733398438	820.9669799804688	-185.4817352294922	1530.24755859375	942.7526245117188	-202.4798889160156	1560.540893554688	736.859130859375	-171.8767852783203	1554.370849609375	746.9780883789062	-102.0649261474609	1101.756103515625	1352.05859375	-164.7080841064453	1044.257080078125	1288.732055664062	-180.0458068847656	1005.947570800781	1027.98193359375	-201.1627502441406	1101.346313476562	1019.712463378906	-211.6541900634766	1030.893798828125	831.1634521484375	-48.17842483520508	968.5599975585938	817.3938598632812	-88.62618255615234	987.3934936523438	966.0230712890625	-172.1246948242188	1017.162109375	655.3634643554688	-37.57700729370117	964.388671875	728.98876953125	-77.87975311279297	1165.763793945312	1556.516357421875	-179.4142608642578	1318.614990234375	1570.208374023438	-56.11104965209961	1196.3486328125	1567.7587890625	-50.74156188964844	1322.481323242188	1557.80029296875	-204.2420806884766	1450.07958984375	942.0177612304688	-141.4982604980469	1088.128051757812	919.2952270507812	-126.0331497192383	1148.957397460938	935.6725463867188	2.060023307800293	1411.278076171875	949.522216796875	-26.16951179504395	1447.358520507812	475.5127563476562	47.97382736206055	1457.1044921875	607.2327270507812	-7.314390182495117	1451.603393554688	26.74555015563965	22.43968772888184	1460.835693359375	238.7526092529297	44.45016479492188	1351.8125	32.67247772216797	224.2499084472656	1336.684692382812	32.17259216308594	140.0978546142578	1443.16357421875	25.80653953552246	149.3800201416016	1401.21435546875	23.18747520446777	-22.18883895874023	1143.9658203125	437.1174926757812	-100.1211929321289	1115.076171875	691.6244506835938	-50.29711151123047	1115.519165039062	112.5100936889648	-397.3269958496094	1142.96875	324.6466979980469	-163.590087890625	1251.842041015625	24.63904571533203	-343.1618347167969	1238.15771484375	68.66410827636719	-377.5367736816406	1144.793212890625	48.36741638183594	-361.7476501464844	1133.432983398438	170.1755218505859	-464.0542602539062	1543.956787109375	670.879150390625	-80.10606384277344	1007.855895996094	726.4420776367188	-23.25639533996582	nan	nan	nan	
515	5.14	1204.571533203125	944.7086791992188	-209.5877075195312	1337.454223632812	940.1971435546875	-218.244384765625	1262.125732421875	1016.684814453125	-217.1698303222656	1267.265380859375	1191.298461914062	1.45509934425354	1258.225708007812	1118.487670898438	-238.7192535400391	1259.185791015625	1369.888916015625	-221.3014068603516	1262.587158203125	1304.591674804688	-62.09910583496094	1193.561157226562	1222.233520507812	-254.6750183105469	1360.215454101562	1333.874389648438	-242.5091705322266	1416.740234375	1357.40283203125	-162.9416809082031	1481.914184570312	1241.854736328125	-198.9622192382812	1517.222900390625	1048.19970703125	-197.5985107421875	1440.814086914062	1021.472778320312	-228.2959594726562	1524.669799804688	836.3533935546875	-93.43686676025391	1564.859741210938	824.245361328125	-167.4007720947266	1537.989624023438	945.1769409179688	-187.0592041015625	1570.155517578125	740.1954345703125	-151.6189270019531	1563.188232421875	751.0053100585938	-83.17902374267578	1105.738647460938	1353.19873046875	-160.0775604248047	1048.508666992188	1289.76318359375	-176.0831451416016	1010.656005859375	1029.003295898438	-197.4995880126953	1106.174438476562	1020.911743164062	-206.4454345703125	1032.305297851562	830.4614868164062	-46.22444152832031	971.0066528320312	817.084228515625	-88.2967529296875	991.447265625	966.815673828125	-169.4381561279297	1019.541625976562	654.2171020507812	-39.53986358642578	967.3359375	728.3202514648438	-79.44586181640625	1169.168701171875	1557.974975585938	-173.6071166992188	1321.711181640625	1571.597412109375	-48.90494537353516	1199.367919921875	1569.341186523438	-44.67044830322266	1326.798095703125	1558.8359375	-196.9477233886719	1454.056884765625	943.3860473632812	-132.4317932128906	1092.39404296875	920.3995361328125	-122.0502853393555	1150.954956054688	936.9988403320312	7.394590377807617	1413.605590820312	950.6243286132812	-17.10385322570801	1448.505615234375	475.0995788574219	52.89991760253906	1459.016723632812	607.290771484375	-1.236860752105713	1451.341064453125	27.16243362426758	22.52285003662109	1461.157348632812	238.4555358886719	47.01821899414062	1351.412719726562	32.11478042602539	224.6574249267578	1336.31591796875	31.88706398010254	140.2543487548828	1442.941284179688	25.88156700134277	149.5207824707031	1401.010131835938	23.36008453369141	-22.17772102355957	1144.929931640625	438.385009765625	-88.20436859130859	1117.083740234375	693.2770385742188	-42.93206405639648	1118.281616210938	117.775390625	-390.2958374023438	1143.675170898438	326.8124694824219	-152.5010223388672	1251.87158203125	23.33797073364258	-339.7308654785156	1238.96240234375	70.02078247070312	-372.3828125	1145.3486328125	50.79420471191406	-358.1074829101562	1138.334350585938	177.9521636962891	-453.9026184082031	1553.428466796875	674.9808959960938	-60.36659240722656	1009.395141601562	724.9642333984375	-23.92963218688965	nan	nan	nan	
516	5.15	1209.951782226562	945.4593505859375	-204.0772552490234	1342.965698242188	941.5706787109375	-210.6143798828125	1267.693969726562	1018.146728515625	-210.8114318847656	1268.812133789062	1192.252685546875	8.305829048156738	1263.689208984375	1119.6298828125	-231.2762298583984	1263.948852539062	1371.080932617188	-214.3923797607422	1265.035278320312	1305.624389648438	-54.87047958374023	1199.115356445312	1223.360717773438	-248.7564849853516	1365.4267578125	1335.227172851562	-233.9416656494141	1420.48876953125	1358.881591796875	-153.4444732666016	1486.898315429688	1243.48388671875	-187.6964721679688	1523.877319335938	1050.158081054688	-184.0495452880859	1448.352294921875	1022.597473144531	-216.0474548339844	1532.464111328125	840.5960083007812	-75.87731170654297	1573.381713867188	827.622314453125	-149.2584228515625	1545.483520507812	947.6431274414062	-171.6010131835938	1579.516479492188	743.7566528320312	-131.2207794189453	1571.708740234375	755.1561889648438	-64.22589111328125	1109.602783203125	1354.189331054688	-155.4896697998047	1052.692260742188	1290.625	-172.2276153564453	1015.128479003906	1029.872924804688	-194.0400390625	1110.724243164062	1021.840148925781	-201.4966430664062	1033.7529296875	829.8869018554688	-44.35382843017578	973.5032958984375	816.9202270507812	-87.77734375	995.3198852539062	967.5151977539062	-166.8809204101562	1021.89501953125	653.3218383789062	-41.12753677368164	970.2449951171875	727.8499755859375	-80.63224029541016	1172.296997070312	1559.396118164062	-167.8240509033203	1324.708129882812	1572.907104492188	-41.74053955078125	1202.29931640625	1570.87060546875	-38.61660766601562	1330.969970703125	1559.789184570312	-189.6916961669922	1457.773071289062	944.4611206054688	-123.7227783203125	1096.61572265625	921.5242919921875	-118.5114212036133	1152.750610351562	938.23828125	12.46003246307373	1415.6953125	951.49462890625	-8.308477401733398	1449.581909179688	474.7242431640625	57.64696502685547	1460.73388671875	607.3834228515625	4.683598041534424	1451.132080078125	27.54728317260742	22.60158348083496	1461.521484375	238.1859283447266	49.43396759033203	1351.10009765625	31.70577621459961	225.0056610107422	1336.025634765625	31.68043518066406	140.3765106201172	1442.739624023438	25.9465217590332	149.65234375	1400.861083984375	23.51772499084473	-22.1551399230957	1146.01513671875	439.6810302734375	-76.18666839599609	1118.983154296875	694.8322143554688	-35.81065368652344	1120.909423828125	123.0760269165039	-382.8000183105469	1144.716674804688	328.8736267089844	-141.114013671875	1251.88671875	21.65701484680176	-335.4746704101562	1239.991455078125	71.81537628173828	-366.0211791992188	1146.041870117188	53.60005569458008	-353.3263549804688	1143.208862304688	185.4277496337891	-443.201416015625	1562.603149414062	679.20703125	-40.55934524536133	1011.059387207031	723.7684326171875	-24.36877250671387	nan	nan	nan	
517	5.16	1215.2392578125	946.1543579101562	-198.8599548339844	1348.3505859375	942.8692016601562	-203.3152313232422	1273.193603515625	1019.645629882812	-204.7742767333984	1270.22119140625	1193.076782226562	14.97883129119873	1269.077758789062	1120.788330078125	-224.1147766113281	1268.579833984375	1372.265747070312	-207.5283813476562	1267.406005859375	1306.507080078125	-47.77004241943359	1204.576538085938	1224.452514648438	-242.9392395019531	1370.503295898438	1336.612548828125	-225.4350280761719	1424.076538085938	1360.304809570312	-143.9916839599609	1491.6865234375	1245.073852539062	-176.4711303710938	1530.2783203125	1052.10693359375	-170.4636688232422	1455.73486328125	1023.718994140625	-203.8550567626953	1539.878662109375	844.9899291992188	-58.39833068847656	1581.5673828125	831.09375	-131.0964965820312	1552.698974609375	950.175537109375	-156.1345520019531	1588.599487304688	747.5942993164062	-110.7685852050781	1579.908569335938	759.4591064453125	-45.23062133789062	1113.35595703125	1355.06298828125	-150.9438629150391	1056.806518554688	1291.361083984375	-168.4693908691406	1019.408325195312	1030.63232421875	-190.77880859375	1115.034912109375	1022.55615234375	-196.8057708740234	1035.25390625	829.4442138671875	-42.59139633178711	976.0385131835938	816.8784790039062	-87.12876892089844	999.0507202148438	968.1527099609375	-164.4590301513672	1024.184326171875	652.6882934570312	-42.24325180053711	973.0790405273438	727.5675048828125	-81.42892456054688	1175.280029296875	1560.764892578125	-162.0663757324219	1327.597900390625	1574.138793945312	-34.6218376159668	1205.12548828125	1572.331420898438	-32.58524322509766	1334.997680664062	1560.678588867188	-182.4881896972656	1461.226196289062	945.2764892578125	-115.3827209472656	1100.71728515625	922.6408081054688	-115.2706756591797	1154.385498046875	939.3945922851562	17.26296997070312	1417.572998046875	952.1795654296875	0.1894358545541763	1450.60986328125	474.3916320800781	62.2556266784668	1462.3017578125	607.565185546875	10.56528377532959	1450.979858398438	27.89137649536133	22.68574142456055	1461.93603515625	237.9365692138672	51.73880004882812	1350.86376953125	31.39906883239746	225.3029174804688	1335.81396484375	31.53193664550781	140.4775085449219	1442.569580078125	26.00242042541504	149.7724761962891	1400.767700195312	23.67063331604004	-22.11352157592773	1147.22705078125	441.0130615234375	-64.0887451171875	1120.80322265625	696.3137817382812	-28.92571067810059	1123.4833984375	128.3388824462891	-374.884765625	1146.081909179688	330.8445129394531	-129.4754180908203	1251.864135742188	19.70870208740234	-330.318603515625	1241.291870117188	74.13907623291016	-358.4291076660156	1146.877685546875	56.67570114135742	-347.4714965820312	1148.09765625	192.5293121337891	-432.0843200683594	1571.457885742188	683.585693359375	-20.70933723449707	1012.816467285156	722.8763427734375	-24.53570556640625	nan	nan	nan	
